<svg width="17" height="17" viewBox="0 0 17 17" fill="none" xmlns="http://www.w3.org/2000/svg">
<path d="M9.98338 4.56665H2.66211V5.2692H9.98338V4.56665Z" fill="white"/>
<path d="M9.98338 6.67407H2.66211V7.37662H9.98338V6.67407Z" fill="white"/>
<path d="M8.31945 8.78174H2.66211V9.48429H8.31945V8.78174Z" fill="white"/>
<path d="M6.65553 10.8896H2.66211V11.5922H6.65553V10.8896Z" fill="white"/>
<path d="M6.65553 12.9971H2.66211V13.6996H6.65553V12.9971Z" fill="white"/>
<path d="M12.6458 6.17749V2.66476L10.1213 0H0V16.8611H12.6458V10.6836L16.1115 7.02546L13.977 4.7724L12.6458 6.17749ZM12.313 7.52216L13.5064 8.78183L9.51299 12.9971H8.31962V11.7374L12.313 7.52216ZM10.3163 1.19925L11.5097 2.45891H10.3163V1.19925ZM11.9803 16.1586H0.66557V0.702546H9.65076V3.16146H11.9803V6.88003L7.65405 11.4466V13.6997H9.78854L11.9803 11.3862V16.1586ZM13.977 8.28513L12.7836 7.02546L13.977 5.7658L15.1703 7.02546L13.977 8.28513Z" fill="white"/>
</svg>
