<svg width="22" height="19" viewBox="0 0 22 19" fill="none" xmlns="http://www.w3.org/2000/svg">
<path d="M13.6678 7.85214L13.6777 9.26696C12.5254 9.39754 11.6398 10.149 11.6461 11.05C11.6524 11.9502 12.5484 12.6888 13.7024 12.8033L13.719 15.1754C12.9322 15.0734 12.334 14.5959 12.3299 14.0194C12.3288 13.8538 12.1795 13.7207 11.9963 13.722C11.8131 13.7233 11.6657 13.8584 11.6669 14.024C11.6732 14.925 12.5694 15.6643 13.7232 15.7781L13.7331 17.1933C13.7343 17.359 13.8835 17.492 14.0667 17.4907C14.25 17.4895 14.3973 17.3543 14.3962 17.1887L14.3863 15.7733C15.5396 15.6433 16.4263 14.8916 16.42 13.9904C16.4137 13.0902 15.5165 12.3518 14.3616 12.238L14.345 9.86443C15.1327 9.96598 15.7321 10.4439 15.7361 11.0212C15.7373 11.1869 15.8865 11.3199 16.0698 11.3186C16.253 11.3173 16.4004 11.1822 16.3992 11.0166C16.3929 10.1148 15.4957 9.37513 14.3408 9.2617L14.3309 7.8473C14.3297 7.68167 14.1805 7.54863 13.9973 7.54991C13.814 7.55119 13.6667 7.68651 13.6678 7.85214ZM12.3091 11.0454C12.3051 10.4689 12.8964 9.98306 13.6819 9.86968L13.6982 12.2005C12.9112 12.0982 12.3132 11.6213 12.3091 11.0454ZM15.7569 13.9952C15.7609 14.572 15.1685 15.0578 14.3821 15.1706L14.3658 12.8409C15.1538 12.9427 15.7529 13.4193 15.7569 13.9952Z" fill="white"/>
<path d="M7.02508 12.5699C7.0495 16.0633 10.2134 18.8831 14.078 18.8561C17.9426 18.8291 21.0668 15.9653 21.0424 12.4719C21.018 8.97851 17.8541 6.15827 13.9895 6.18528C10.1248 6.2123 7.00066 9.07648 7.02508 12.5699ZM20.3793 12.4766C20.4014 15.6393 17.5729 18.2322 14.0738 18.2567C10.5747 18.2812 7.71027 15.728 7.68816 12.5653C7.66605 9.4023 10.4946 6.80917 13.9936 6.78471C17.4927 6.76025 20.3572 9.31338 20.3793 12.4766Z" fill="white"/>
<path d="M0.0573359 6.83774L0.770169 9.28276C0.816465 9.4423 0.998311 9.53737 1.17418 9.49591L3.86121 8.86097C4.03845 8.8193 4.14478 8.65539 4.09871 8.49522C4.05286 8.33505 3.87101 8.23937 3.69446 8.28104L1.77333 8.73488L5.23846 3.78796L7.51798 6.74887C7.58314 6.8334 7.68726 6.87538 7.80684 6.87681C7.92113 6.87147 8.02432 6.8132 8.08005 6.72287L11.0829 1.84128L14.3063 3.94118C14.4439 4.03077 14.6349 4.0119 14.7482 3.89662L18.0607 0.520573C18.1824 0.396573 18.1699 0.207088 18.0329 0.0974787C17.9691 0.0463543 17.8897 0.0215359 17.8108 0.0220877C17.72 0.0227225 17.6299 0.0567709 17.5648 0.123029L14.4515 3.29615L11.1687 1.15747C11.0919 1.10747 10.9946 1.08917 10.9027 1.10838C10.8102 1.12697 10.731 1.18054 10.6849 1.25533L7.75903 6.01118L5.49794 3.07448C5.43461 2.9922 5.33159 2.94362 5.21865 2.94626C5.10754 2.94869 5.005 3.00098 4.94558 3.08597L1.20594 8.42468L0.69838 6.68391C0.659101 6.54886 0.52362 6.45987 0.375991 6.4609C0.348839 6.46109 0.32102 6.46438 0.293456 6.47097C0.116453 6.51367 0.0105815 6.67778 0.0573359 6.83774Z" fill="white"/>
</svg>
