<svg width="16" height="16" viewBox="0 0 16 16" fill="none" xmlns="http://www.w3.org/2000/svg">
<path fill-rule="evenodd" clip-rule="evenodd" d="M14.8801 4.01165C14.1696 2.79438 13.2058 1.83057 11.9885 1.12009C10.771 0.409618 9.44187 0.0544434 8.00022 0.0544434C6.5587 0.0544434 5.22917 0.409618 4.0119 1.12009C2.79451 1.83044 1.8307 2.79425 1.12022 4.01165C0.409618 5.22905 0.0544434 6.55857 0.0544434 7.99997C0.0544434 9.44149 0.409745 10.7708 1.12009 11.9883C1.83057 13.2054 2.79438 14.1694 4.01178 14.8798C5.22917 15.5903 6.55857 15.9455 8.00009 15.9455C9.44162 15.9455 10.7711 15.5903 11.9884 14.8798C13.2057 14.1695 14.1695 13.2056 14.88 11.9883C15.5903 10.7709 15.9455 9.44136 15.9455 7.99997C15.9455 6.55844 15.5903 5.22892 14.8801 4.01165ZM9.32454 12.9659C9.32454 13.0624 9.2933 13.1418 9.23133 13.2038C9.16949 13.2657 9.09013 13.2967 8.99362 13.2967H7.00708C6.91057 13.2967 6.83121 13.2657 6.76911 13.2038C6.70701 13.1418 6.67603 13.0624 6.67603 12.9659V10.9794C6.67603 10.8829 6.70701 10.8035 6.76911 10.7414C6.83121 10.6796 6.91057 10.6486 7.00708 10.6486H8.99362C9.09013 10.6486 9.16949 10.6796 9.23133 10.7414C9.2933 10.8035 9.32454 10.8829 9.32454 10.9794V12.9659ZM11.8436 6.85152C11.7574 7.10676 11.6609 7.31552 11.554 7.47755C11.4471 7.63959 11.2936 7.80517 11.0934 7.97406C10.8937 8.14308 10.735 8.26384 10.6175 8.33635C10.5004 8.4086 10.3313 8.50702 10.1107 8.63108C9.88314 8.76213 9.69533 8.93279 9.54714 9.14321C9.39882 9.35349 9.32467 9.52429 9.32467 9.65521C9.32467 9.75184 9.29343 9.83121 9.23146 9.89317C9.16962 9.95527 9.09025 9.98625 8.99375 9.98625H7.00721C6.9107 9.98625 6.83133 9.95527 6.76924 9.89317C6.70714 9.83121 6.67616 9.75184 6.67616 9.65521V9.28263C6.67616 8.82054 6.85711 8.38765 7.21927 7.98422C7.58143 7.58067 7.97978 7.28238 8.41432 7.08924C8.74524 6.93762 8.97978 6.78232 9.11768 6.62371C9.25584 6.46511 9.32479 6.25457 9.32479 5.9926C9.32479 5.76492 9.19527 5.56149 8.9366 5.38206C8.67794 5.20276 8.38333 5.11311 8.05216 5.11311C7.69343 5.11311 7.39692 5.1959 7.16238 5.36149C6.9347 5.52695 6.63819 5.84428 6.2726 6.31324C6.21051 6.39603 6.12428 6.43755 6.01394 6.43755C5.93114 6.43755 5.86562 6.41686 5.81736 6.37559L4.45178 5.34105C4.29317 5.21686 4.26562 5.07209 4.36898 4.90651C5.2519 3.43743 6.53127 2.70282 8.20721 2.70282C8.80746 2.70282 9.39375 2.84428 9.96619 3.12708C10.5386 3.40974 11.0162 3.80987 11.3992 4.32721C11.7817 4.84441 11.9733 5.40657 11.9733 6.01355C11.9729 6.31705 11.9296 6.59628 11.8436 6.85152Z" fill="#F8F8F8"/>
</svg>
