<svg width="18" height="18" viewBox="0 0 18 18" fill="none" xmlns="http://www.w3.org/2000/svg">
<path d="M17.999 8.07518C17.9973 7.90821 17.9295 7.7487 17.8104 7.63149L16.0082 6.01997L9.42779 0.159883C9.31253 0.056922 9.16331 0 9.00866 0C8.85402 0 8.7048 0.056922 8.58953 0.159883L2.02594 6.01997L0.20691 7.63149C0.0885665 7.74055 0.0153152 7.88984 0.00153561 8.05007C-0.00906442 8.2023 0.0354749 8.35326 0.127032 8.47543C0.218589 8.5976 0.351064 8.68284 0.500301 8.7156C0.500301 8.73653 1.75769 8.7156 1.79961 8.7156V17.3718C1.79961 17.5383 1.86585 17.698 1.98375 17.8158C2.10165 17.9335 2.26156 17.9997 2.4283 17.9997H6.68249C6.76679 18.0025 6.8508 17.9883 6.92952 17.958C7.00823 17.9277 7.08003 17.8819 7.14065 17.8233C7.20127 17.7647 7.24946 17.6946 7.28236 17.617C7.31526 17.5394 7.33219 17.456 7.33214 17.3718V12.1647H10.7271V17.3718C10.7271 17.5383 10.7933 17.698 10.9112 17.8158C11.0291 17.9335 11.1891 17.9997 11.3558 17.9997H15.5723C15.739 17.9997 15.8989 17.9335 16.0168 17.8158C16.1347 17.698 16.201 17.5383 16.201 17.3718V8.72816C16.2596 8.72816 17.4961 8.72816 17.5003 8.72816C17.6476 8.69649 17.7789 8.61331 17.8703 8.4936C17.9617 8.37389 18.0074 8.22551 17.999 8.07518Z" fill="white"/>
</svg>
