<svg width="24" height="21" viewBox="0 0 24 21" fill="none" xmlns="http://www.w3.org/2000/svg">
<path d="M7.03128 14.7812C6.78249 14.7812 6.58057 14.9602 6.58057 15.1807C6.58057 15.4013 6.78249 15.5802 7.03128 15.5802C7.28008 15.5802 7.482 15.4013 7.482 15.1807C7.482 14.9602 7.28008 14.7812 7.03128 14.7812Z" fill="white"/>
<path d="M20.2887 7.59044L22.9447 5.23623C23.0565 5.1372 23.1015 4.99354 23.0635 4.85763C23.0255 4.72168 22.91 4.61333 22.759 4.57203L16.2912 2.80265C15.7081 1.14149 13.9752 0 11.989 0C10.1427 0 8.49148 0.997349 7.80806 2.50186L0.316514 4.57239C0.165929 4.61401 0.0508163 4.72244 0.0130913 4.85823C-0.0246337 4.99398 0.020438 5.1374 0.13199 5.23627L2.85788 7.6524L1.13867 10.1922C1.06831 10.2961 1.05501 10.4227 1.10243 10.5364C1.14984 10.65 1.25292 10.7385 1.38264 10.7768L3.87614 11.5134V17.6578C3.87614 17.8243 3.9927 17.9734 4.16861 18.0319C5.69325 18.5386 11.3581 20.4217 11.3885 20.4313C11.4779 20.4592 11.5787 20.463 11.6769 20.4349C11.6782 20.4345 11.6795 20.4342 11.6808 20.4338L19.7937 18.0368C19.9778 17.9824 20.1019 17.8298 20.1019 17.6578V11.3489L22.7611 10.6083C22.9114 10.5664 23.0262 10.458 23.0637 10.3223C23.1012 10.1866 23.0561 10.0434 22.9447 9.94465L20.2887 7.59044ZM16.4962 3.99499C16.4962 3.89348 16.4914 3.7922 16.4828 3.69125L21.7784 5.14003L19.5295 7.13337L15.8549 6.04781C16.271 5.43135 16.4962 4.72 16.4962 3.99499ZM8.57833 2.95517C9.07867 1.66551 10.4493 0.798998 11.989 0.798998C13.6477 0.798998 15.0863 1.79343 15.4874 3.21725C15.5587 3.47025 15.5948 3.73192 15.5948 3.99499C15.5948 4.73702 15.317 5.43251 14.7912 6.00655C14.1027 6.75928 13.0813 7.19098 11.989 7.19098C10.8083 7.19098 9.70089 6.67731 9.02635 5.81655C8.60569 5.28098 8.38331 4.65105 8.38331 3.99499C8.38331 3.6382 8.44889 3.28836 8.57833 2.95517ZM1.29646 5.13848L7.52988 3.41568C7.4986 3.60656 7.48187 3.79991 7.48187 3.99495C7.48187 4.63818 7.65378 5.2612 7.98145 5.82334L3.54716 7.13337L1.29646 5.13848ZM2.20074 10.1762L3.6259 8.0708L10.8627 10.209L9.43762 12.3144C8.66487 12.0861 3.02582 10.42 2.20074 10.1762ZM11.0876 19.4784L4.77757 17.381V11.7798C9.74222 13.2388 9.49978 13.1943 9.63801 13.1943C9.79297 13.1943 9.94135 13.1232 10.0246 13.0003L11.0876 11.4298V19.4784ZM11.5383 9.56636L4.85077 7.59052L8.49229 6.51467C9.3446 7.44339 10.6277 7.98998 11.989 7.98998C13.2484 7.98998 14.4321 7.5306 15.2834 6.72121L18.2259 7.59048L11.5383 9.56636ZM19.2005 17.3699L11.989 19.5005V11.1262L13.5869 12.8964C13.7031 13.0252 13.8966 13.0774 14.074 13.028L19.2005 11.6001V17.3699ZM14.098 12.1838L12.2941 10.1853L19.5295 8.04755L21.7815 10.0436L14.098 12.1838Z" fill="white"/>
<path d="M9.89373 15.6678L8.89134 15.3346C8.65827 15.2572 8.39848 15.3618 8.31104 15.5684C8.22365 15.775 8.34174 16.0053 8.5748 16.0827L9.57719 16.4159C9.81076 16.4935 10.0702 16.3884 10.1575 16.1821C10.2449 15.9756 10.1268 15.7453 9.89373 15.6678Z" fill="white"/>
<path d="M9.89376 17.3746L7.18945 16.4757C6.95639 16.3983 6.69659 16.5029 6.60916 16.7095C6.52172 16.9161 6.63985 17.1464 6.87292 17.2239L9.57722 18.1227C9.62937 18.1401 9.68282 18.1483 9.73542 18.1483C9.91791 18.1483 10.0896 18.0494 10.1575 17.889C10.245 17.6823 10.1269 17.4521 9.89376 17.3746Z" fill="white"/>
<path d="M14.5615 2.5135C14.3855 2.35746 14.1001 2.3575 13.9241 2.5135L11.5385 4.62805L10.9557 4.11154C10.7797 3.95553 10.4943 3.95553 10.3183 4.11154C10.1422 4.26754 10.1423 4.5205 10.3183 4.67655L11.2198 5.47551C11.3958 5.63151 11.6812 5.63151 11.8572 5.47551L14.5615 3.07851C14.7375 2.92251 14.7375 2.66955 14.5615 2.5135Z" fill="white"/>
</svg>
