<svg width="20" height="20" viewBox="0 0 20 20" fill="none" xmlns="http://www.w3.org/2000/svg">
<path fill-rule="evenodd" clip-rule="evenodd" d="M10.0001 9.33333C11.4868 9.33333 12.7557 8.87749 13.8072 7.9661C14.8589 7.05471 15.3847 5.95492 15.3847 4.66659C15.3847 3.37841 14.8589 2.27863 13.8072 1.36709C12.7556 0.455696 11.4864 0 10.0001 0C8.51376 0 7.24462 0.455696 6.19303 1.36709C5.14127 2.27863 4.61548 3.37841 4.61548 4.66659C4.61548 5.95492 5.14127 7.05471 6.19303 7.9661C7.24479 8.87749 8.51376 9.33333 10.0001 9.33333Z" fill="#7F8FA4"/>
<path fill-rule="evenodd" clip-rule="evenodd" d="M19.95 15.3526C19.9167 14.921 19.8504 14.4552 19.751 13.9551C19.6517 13.455 19.526 12.9914 19.3745 12.564C19.223 12.1368 19.0193 11.7201 18.7636 11.3141C18.508 10.9081 18.2144 10.5619 17.8828 10.2755C17.5512 9.98913 17.1465 9.76064 16.6685 9.58975C16.1901 9.41886 15.6622 9.33325 15.0846 9.33325C14.9993 9.33325 14.8004 9.42515 14.488 9.60895C14.1755 9.79274 13.8228 9.99794 13.4299 10.2244C13.0369 10.4507 12.5254 10.656 11.8958 10.8395C11.2661 11.0233 10.6341 11.1152 9.99948 11.1152C9.36504 11.1152 8.73305 11.0233 8.10332 10.8395C7.47376 10.656 6.96224 10.4507 6.56927 10.2244C6.1763 9.99794 5.8236 9.79274 5.51118 9.60895C5.19858 9.42515 4.99983 9.33325 4.91457 9.33325C4.33697 9.33325 3.80906 9.41886 3.33083 9.58975C2.85261 9.76064 2.44778 9.98929 2.11636 10.2755C1.78493 10.5619 1.49134 10.9081 1.23575 11.3141C0.98016 11.7201 0.776526 12.1369 0.625022 12.564C0.473517 12.9914 0.34799 13.455 0.248614 13.9551C0.149064 14.4552 0.0828132 14.9208 0.0496879 15.3526C0.0165626 15.7844 0 16.2266 0 16.6796C0 17.7051 0.345723 18.5151 1.037 19.1091C1.72827 19.703 2.64688 19.9999 3.79267 19.9999H16.2073C17.3531 19.9999 18.2716 19.703 18.963 19.1091C19.6545 18.5151 20 17.7053 20 16.6796C20 16.2266 19.9834 15.7842 19.95 15.3526Z" fill="#7F8FA4"/>
</svg>
