<svg width="21" height="18" viewBox="0 0 21 18" fill="none" xmlns="http://www.w3.org/2000/svg">
<path d="M4.42417 10.003C4.08314 10.5779 3.53542 11.018 2.88051 11.2433C2.22561 11.4686 1.50699 11.4642 0.855225 11.2309V17.1367C0.855381 17.2379 0.897937 17.3349 0.973564 17.4064C1.04919 17.478 1.15172 17.5182 1.25867 17.5184H4.05528C4.16224 17.5182 4.26476 17.478 4.34039 17.4064C4.41602 17.3349 4.45857 17.2379 4.45873 17.1367V10.0114C4.45874 10.0075 4.45739 10.0037 4.45488 10.0006C4.45238 9.99758 4.44886 9.9954 4.44489 9.99444C4.44092 9.99348 4.43672 9.9938 4.43297 9.99535C4.42922 9.99691 4.42612 9.9996 4.42417 10.003Z" fill="white"/>
<path d="M7.27468 5.41415L5.85254 6.77937V17.1369C5.8527 17.2381 5.89525 17.3351 5.97088 17.4066C6.04651 17.4782 6.14903 17.5184 6.25599 17.5186H9.05259C9.15955 17.5184 9.26207 17.4782 9.3377 17.4066C9.41333 17.3351 9.45588 17.2381 9.45604 17.1369V5.98054L8.85637 5.41284C8.33919 5.55009 7.79212 5.55055 7.27468 5.41415Z" fill="white"/>
<path d="M10.8496 9.2317V17.1368C10.8498 17.238 10.8923 17.335 10.9679 17.4065C11.0436 17.478 11.1461 17.5183 11.2531 17.5184H14.0497C14.1566 17.5183 14.2591 17.478 14.3348 17.4065C14.4104 17.335 14.453 17.238 14.4531 17.1368V9.37567C13.923 9.73895 13.2789 9.92237 12.6249 9.89624C11.9709 9.87011 11.3454 9.63596 10.8496 9.23169L10.8496 9.2317Z" fill="white"/>
<path d="M17.6267 4.42919L15.8469 6.11274V17.1369C15.8471 17.238 15.8896 17.335 15.9653 17.4066C16.0409 17.4781 16.1434 17.5184 16.2504 17.5185H19.047C19.1539 17.5184 19.2565 17.4781 19.3321 17.4066C19.4077 17.335 19.4503 17.238 19.4504 17.1369V4.35547C18.8666 4.56457 18.2272 4.59042 17.6267 4.4292L17.6267 4.42919Z" fill="white"/>
<path d="M18.4199 5.3357e-07C18.0812 -0.000247656 17.7488 0.0860923 17.4577 0.249888C17.1667 0.413684 16.9278 0.648846 16.7664 0.930501C16.6051 1.21216 16.5272 1.52983 16.541 1.84993C16.5548 2.17003 16.6598 2.48064 16.8449 2.74892L13.7736 5.65422C13.4632 5.46233 13.0996 5.3618 12.7288 5.36535C12.358 5.3689 11.9966 5.47638 11.6904 5.67418L9.63779 3.73226C9.82285 3.46386 9.92783 3.15315 9.94163 2.83297C9.95544 2.51279 9.87755 2.19503 9.71621 1.91326C9.55487 1.6315 9.31606 1.39619 9.02502 1.23221C8.73398 1.06822 8.40152 0.981649 8.06276 0.981639C7.724 0.981628 7.39153 1.06818 7.10048 1.23215C6.80943 1.39611 6.57061 1.6314 6.40924 1.91316C6.24788 2.19492 6.16998 2.51267 6.18376 2.83285C6.19754 3.15303 6.3025 3.46375 6.48754 3.73216L2.91118 7.16444C2.52106 6.924 2.0506 6.82881 1.59063 6.89723C1.13067 6.96565 0.713804 7.19284 0.420522 7.53493C0.127239 7.87703 -0.0216665 8.30977 0.0025506 8.74963C0.0267677 9.18948 0.22239 9.60526 0.551654 9.91668C0.880917 10.2281 1.32047 10.4131 1.78547 10.436C2.25046 10.4588 2.70791 10.3179 3.06952 10.0404C3.43113 9.76295 3.67125 9.36859 3.74352 8.93348C3.81579 8.49837 3.71509 8.05336 3.46087 7.68435L7.03716 4.25217C7.34205 4.44072 7.69842 4.54114 8.06269 4.54114C8.42695 4.54114 8.78332 4.44072 9.08821 4.25217L11.1521 6.20479C10.9738 6.47542 10.8756 6.78642 10.8679 7.10525C10.8602 7.42408 10.9432 7.73901 11.1084 8.01706C11.2735 8.29511 11.5145 8.52606 11.8064 8.68575C12.0982 8.84543 12.43 8.92796 12.7672 8.92471C13.1043 8.92146 13.4343 8.83254 13.7226 8.66726C14.0109 8.50198 14.247 8.26642 14.406 7.98524C14.5651 7.70406 14.6414 7.3876 14.6268 7.06899C14.6122 6.75037 14.5074 6.44133 14.3232 6.17419L17.3946 3.2688C17.6399 3.41984 17.919 3.51463 18.2098 3.54564C18.5006 3.57665 18.795 3.54301 19.0697 3.4474C19.3443 3.3518 19.5916 3.19686 19.7918 2.99494C19.9919 2.79301 20.1395 2.54967 20.2228 2.28428C20.306 2.01889 20.3226 1.73878 20.2712 1.46625C20.2199 1.19373 20.102 0.936304 19.9269 0.714481C19.7518 0.492659 19.5244 0.31256 19.2628 0.188521C19.0012 0.0644821 18.7125 -7.09191e-05 18.4199 5.3357e-07Z" fill="#2E79BD"/>
</svg>
