<svg width="16" height="16" viewBox="0 0 16 16" fill="none" xmlns="http://www.w3.org/2000/svg">
<path fill-rule="evenodd" clip-rule="evenodd" d="M15.8627 6.62917C15.8073 6.55667 15.7351 6.51349 15.6454 6.49978L13.7522 6.21013C13.6487 5.87908 13.5073 5.54117 13.328 5.19628C13.452 5.02384 13.6382 4.78079 13.8864 4.46689C14.1347 4.15298 14.3106 3.92378 14.4141 3.77889C14.4693 3.70295 14.4967 3.62371 14.4967 3.54092C14.4967 3.44441 14.4727 3.3686 14.4243 3.31336C14.1761 2.96149 13.6071 2.37533 12.7173 1.55451C12.6348 1.48555 12.5484 1.45114 12.4589 1.45114C12.3554 1.45114 12.2726 1.48213 12.2105 1.54409L10.7416 2.65114C10.4586 2.50625 10.1483 2.37863 9.81038 2.26828L9.52073 0.364793C9.51387 0.275142 9.47413 0.200983 9.40174 0.142316C9.32924 0.0836497 9.24492 0.0544434 9.14816 0.0544434H6.85152C6.65152 0.0544434 6.52733 0.150951 6.47908 0.344094C6.38943 0.688856 6.28936 1.33025 6.17901 2.26828C5.85482 2.3719 5.54105 2.50295 5.23755 2.66155L3.80987 1.55451C3.72022 1.48555 3.63057 1.45114 3.54092 1.45114C3.38917 1.45114 3.06333 1.69762 2.56327 2.19082C2.06321 2.68403 1.72365 3.0547 1.54422 3.30295C1.48213 3.3926 1.45114 3.47197 1.45114 3.54092C1.45114 3.62371 1.48555 3.70651 1.55451 3.78917C2.0166 4.3479 2.38562 4.82371 2.66155 5.21698C2.48911 5.53419 2.35463 5.85152 2.25813 6.16873L0.333808 6.45838C0.257999 6.47222 0.192475 6.51705 0.137237 6.59298C0.0819989 6.66879 0.0544434 6.74816 0.0544434 6.83082V9.12759C0.0544434 9.21736 0.0819989 9.29825 0.137237 9.37063C0.192475 9.44314 0.264856 9.48644 0.354507 9.50016L2.24784 9.77952C2.34435 10.1174 2.48568 10.4588 2.67197 10.8035C2.5479 10.976 2.36162 11.219 2.11336 11.5329C1.86511 11.8468 1.68911 12.076 1.58574 12.2209C1.53051 12.297 1.50295 12.3761 1.50295 12.4589C1.50295 12.5485 1.52708 12.6278 1.57533 12.6967C1.84428 13.0693 2.4133 13.6487 3.28238 14.4349C3.35832 14.5108 3.44454 14.5487 3.54105 14.5487C3.64454 14.5487 3.73076 14.5177 3.79971 14.4557L5.25851 13.3485C5.54143 13.4934 5.85178 13.621 6.18968 13.7315L6.47933 15.635C6.48632 15.7247 6.52594 15.7988 6.59832 15.8575C6.6707 15.9163 6.75527 15.9454 6.85178 15.9454H9.14854C9.34879 15.9454 9.47286 15.8489 9.52124 15.6557C9.61076 15.3108 9.7107 14.6696 9.82105 13.7315C10.1452 13.628 10.4591 13.4969 10.7625 13.3383L12.1903 14.4557C12.2868 14.5177 12.3766 14.5487 12.4593 14.5487C12.6109 14.5487 12.9351 14.304 13.4316 13.8142C13.9283 13.3245 14.2697 12.952 14.4557 12.6967C14.5178 12.6278 14.5489 12.5485 14.5489 12.4589C14.5489 12.3692 14.5145 12.2828 14.4454 12.2002C13.9489 11.5932 13.5799 11.1174 13.3384 10.7725C13.4763 10.5173 13.6109 10.2035 13.7419 9.83108L15.6558 9.54155C15.7385 9.52771 15.8077 9.48276 15.8628 9.40682C15.9179 9.33089 15.9454 9.25152 15.9454 9.16886V6.87222C15.9455 6.78257 15.9181 6.70168 15.8627 6.62917ZM9.87273 9.87247C9.35552 10.3898 8.73127 10.6485 8.00009 10.6485C7.26892 10.6485 6.64479 10.3898 6.12746 9.87247C5.61025 9.35527 5.35159 8.73114 5.35159 7.99997C5.35159 7.26879 5.61013 6.64467 6.12746 6.12733C6.64479 5.61013 7.26905 5.35146 8.00009 5.35146C8.73127 5.35146 9.35552 5.61013 9.87273 6.12733C10.3899 6.64467 10.6486 7.26879 10.6486 7.99997C10.6486 8.73114 10.3899 9.35527 9.87273 9.87247Z" fill="#F8F8F8"/>
</svg>
