   <svg fill="none" xmlns="http://www.w3.org/2000/svg"><path fill-rule="evenodd" clip-rule="evenodd" d="M1738.55-352.517c87.23 142.487-11.62 323.707-39.52 489.284-26.67 158.362-24.22 324.724-119.58 455.092-103.13 140.98-250.44 266.032-423.84 287.841-169.685 21.341-311.746-103.646-465.413-176-152.329-71.724-343.848-99.021-427.348-244.355-83.843-145.933-26.552-327.518 3.096-494.073 28.271-158.822 65.457-314.92 163.874-443.931C537-619.159 666.83-778.57 843.063-791.252c174.367-12.547 285.547 174.669 441.517 251.084 150.61 73.79 366.77 45.229 453.97 187.651z" fill="url(#paint0_linear)"/><path fill-rule="evenodd" clip-rule="evenodd" d="M1957.03-136.615c87.24 142.486-11.61 323.706-39.51 489.284-26.68 158.362-24.23 324.724-119.59 455.092-103.12 140.979-250.43 266.029-423.84 287.839-169.68 21.34-311.74-103.644-465.405-175.998-152.328-71.724-343.848-99.021-427.347-244.355-83.843-145.933-26.552-327.518 3.096-494.074 28.271-158.822 65.457-314.919 163.873-443.93 107.182-140.5 237.011-299.911 413.243-312.593 174.37-12.548 285.55 174.669 441.52 251.084 150.61 73.789 366.77 45.228 453.96 187.651z" fill="url(#paint1_linear)"/><defs><linearGradient id="paint0_linear" x1="1659.63" y1="195.979" x2="290.926" y2="-3.587" gradientUnits="userSpaceOnUse"><stop stop-color="#46B4CA"/><stop offset=".479" stop-color="#6DD1D4"/><stop offset="1" stop-color="#87E4DB"/></linearGradient><linearGradient id="paint1_linear" x1="1953.72" y1="-143.155" x2="477.761" y2="668.852" gradientUnits="userSpaceOnUse"><stop stop-color="#6547E6" stop-opacity=".65"/><stop offset="1" stop-color="#6947FA" stop-opacity=".32"/></linearGradient></defs>
      </svg>