<svg width="212" height="212" viewBox="0 0 212 212" fill="none" xmlns="http://www.w3.org/2000/svg">
<g filter="url(#filter0_d)">
<circle cx="106" cy="105" r="100" fill="white"/>
</g>
<path d="M143.69 54.8577H68.7306C67.3556 54.8577 66.241 55.9723 66.241 57.3473V163.052C66.241 164.427 67.3556 165.541 68.7306 165.541H143.69C145.065 165.541 146.18 164.427 146.18 163.052V57.3473C146.18 55.9723 145.065 54.8577 143.69 54.8577Z" fill="#46B4CA"/>
<g opacity="0.3">
<path opacity="0.3" d="M143.69 54.8577H68.7306C67.3556 54.8577 66.241 55.9723 66.241 57.3473V163.052C66.241 164.427 67.3556 165.541 68.7306 165.541H143.69C145.065 165.541 146.18 164.427 146.18 163.052V57.3473C146.18 55.9723 145.065 54.8577 143.69 54.8577Z" fill="black"/>
</g>
<path d="M140.57 60.7759H71.8506V161.666H140.57V60.7759Z" fill="#E0E0E0"/>
<path d="M139.623 59.9697H70.9031V158.933H139.623V59.9697Z" fill="#EBEBEB"/>
<path d="M139.627 158.93C139.627 158.104 139.588 118.36 139.533 59.9702L139.627 60.0602H70.915L71.0168 59.9584C71.0168 97.1192 71.0168 131.45 70.9972 158.918L70.915 158.836L139.639 158.918L70.915 159H70.8328V158.918C70.8328 131.45 70.8328 97.1192 70.8132 59.9584V59.8684H70.9268H139.639H139.729V59.9624C139.662 118.36 139.627 158.104 139.627 158.93Z" fill="#263238"/>
<path d="M115.247 158.929C115.247 158.929 132.906 152.208 139.462 141.06C137.43 142.476 135.132 143.467 132.707 143.971C130.282 144.476 127.779 144.484 125.351 143.995C125.351 143.995 120.677 156.471 115.247 158.929Z" fill="#E0E0E0"/>
<path d="M115.247 158.929L115.541 158.765C115.834 158.604 116.116 158.425 116.386 158.229C117.38 157.467 118.269 156.577 119.029 155.582C121.025 153.05 123.284 149.01 125.265 143.964L125.296 143.89H125.37C127.476 144.313 129.641 144.357 131.763 144.019C132.323 143.948 132.871 143.8 133.434 143.682C133.998 143.565 134.546 143.377 135.094 143.173C136.216 142.778 137.297 142.276 138.324 141.674C138.715 141.443 139.079 141.208 139.4 140.966L139.823 140.641L139.549 141.095C138.472 142.869 137.199 144.517 135.756 146.007C134.41 147.384 132.972 148.666 131.45 149.844C128.879 151.822 126.157 153.595 123.307 155.144C120.888 156.471 118.864 157.411 117.459 158.025C116.754 158.334 116.199 158.558 115.823 158.702L115.396 158.867C115.347 158.887 115.296 158.903 115.243 158.914C115.243 158.914 115.29 158.886 115.388 158.847L115.811 158.667C116.179 158.507 116.727 158.276 117.428 157.955C118.821 157.317 120.833 156.358 123.241 155.019C126.077 153.463 128.789 151.689 131.352 149.715C132.863 148.539 134.29 147.26 135.623 145.886C137.054 144.405 138.317 142.769 139.388 141.009L139.537 141.138C139.185 141.399 138.819 141.642 138.441 141.866C137.403 142.472 136.31 142.977 135.176 143.377C134.62 143.584 134.053 143.737 133.493 143.894C132.933 144.05 132.37 144.164 131.802 144.23C129.659 144.567 127.473 144.518 125.347 144.085L125.449 144.027C123.448 149.088 121.143 153.124 119.127 155.649C118.354 156.646 117.446 157.53 116.43 158.276C116.06 158.535 115.664 158.754 115.247 158.929Z" fill="#263238"/>
<path d="M86.0057 86.9368H80.2826C79.5432 86.9368 78.9438 87.5362 78.9438 88.2755V93.9986C78.9438 94.738 79.5432 95.3374 80.2826 95.3374H86.0057C86.7451 95.3374 87.3445 94.738 87.3445 93.9986V88.2755C87.3445 87.5362 86.7451 86.9368 86.0057 86.9368Z" fill="#46B4CA"/>
<path d="M82.6155 92.3504C82.5884 92.3491 82.5619 92.3421 82.5376 92.33C82.5134 92.3178 82.4919 92.3008 82.4746 92.2799L81.3002 90.9098C81.2671 90.8696 81.251 90.818 81.2553 90.7661C81.2597 90.7142 81.2843 90.666 81.3237 90.6319C81.3415 90.6137 81.3629 90.5992 81.3864 90.5893C81.4099 90.5794 81.4352 90.5743 81.4607 90.5743C81.4862 90.5743 81.5115 90.5794 81.535 90.5893C81.5585 90.5992 81.5798 90.6137 81.5977 90.6319L82.6351 91.8454L85.3752 89.0544C85.4125 89.0182 85.4623 88.998 85.5142 88.998C85.5661 88.998 85.6159 89.0182 85.6532 89.0544C85.6715 89.0726 85.6861 89.0942 85.696 89.118C85.7059 89.1419 85.7111 89.1675 85.7111 89.1933C85.7111 89.2192 85.7059 89.2447 85.696 89.2686C85.6861 89.2924 85.6715 89.3141 85.6532 89.3323L82.7799 92.276C82.7595 92.2996 82.7342 92.3184 82.7058 92.3313C82.6775 92.3441 82.6466 92.3506 82.6155 92.3504Z" fill="white"/>
<path d="M131.61 87.9587C131.61 88.0174 122.669 88.0605 111.646 88.0605C100.622 88.0605 91.6816 88.0174 91.6816 87.9587C91.6816 87.9 100.619 87.8569 111.646 87.8569C122.673 87.8569 131.61 87.8961 131.61 87.9587Z" fill="#263238"/>
<path d="M108.499 94.1052C108.279 94.1346 108.058 94.1477 107.837 94.1443L106.032 94.1757C104.514 94.1952 102.408 94.207 100.086 94.207C97.7649 94.207 95.6588 94.207 94.1361 94.1757L92.3315 94.1443C92.1116 94.1476 91.8918 94.1345 91.6738 94.1052C91.8915 94.0734 92.1115 94.0603 92.3315 94.066L94.1361 94.0308C95.6588 94.0308 97.761 94.0034 100.086 94.0034C102.411 94.0034 104.514 94.0034 106.032 94.0308L107.837 94.066C108.058 94.0602 108.28 94.0733 108.499 94.1052Z" fill="#263238"/>
<path d="M131.61 90.6838C131.61 90.7386 122.669 90.7856 111.646 90.7856C100.622 90.7856 91.6816 90.7386 91.6816 90.6838C91.6816 90.629 100.619 90.582 111.646 90.582C122.673 90.582 131.61 90.6368 131.61 90.6838Z" fill="#263238"/>
<path d="M86.0057 101.683H80.2826C79.5432 101.683 78.9438 102.283 78.9438 103.022V108.745C78.9438 109.485 79.5432 110.084 80.2826 110.084H86.0057C86.7451 110.084 87.3445 109.485 87.3445 108.745V103.022C87.3445 102.283 86.7451 101.683 86.0057 101.683Z" fill="#46B4CA"/>
<path d="M82.6154 107.077C82.5885 107.078 82.5618 107.072 82.5374 107.06C82.513 107.049 82.4915 107.032 82.4745 107.011L81.3002 105.637C81.2835 105.617 81.2708 105.595 81.2628 105.57C81.2548 105.546 81.2518 105.52 81.2538 105.494C81.2558 105.469 81.2628 105.444 81.2745 105.421C81.2861 105.398 81.3022 105.378 81.3217 105.361C81.3412 105.344 81.3639 105.331 81.3883 105.323C81.4127 105.315 81.4385 105.312 81.4641 105.314C81.4898 105.316 81.5147 105.323 81.5377 105.335C81.5606 105.347 81.581 105.363 81.5977 105.382L82.635 106.592L85.3752 103.805C85.3926 103.784 85.4141 103.767 85.4383 103.755C85.4625 103.744 85.4889 103.737 85.5158 103.736C85.5428 103.734 85.5697 103.739 85.5948 103.748C85.62 103.758 85.6429 103.773 85.6621 103.792C85.6813 103.811 85.6964 103.833 85.7065 103.858C85.7165 103.883 85.7212 103.91 85.7204 103.937C85.7195 103.964 85.7131 103.991 85.7015 104.015C85.69 104.039 85.6735 104.061 85.6531 104.079L82.7799 107.019C82.7587 107.04 82.7329 107.057 82.7044 107.067C82.6759 107.077 82.6455 107.081 82.6154 107.077Z" fill="white"/>
<path d="M131.61 102.705C131.61 102.76 122.669 102.807 111.646 102.807C100.622 102.807 91.6816 102.76 91.6816 102.705C91.6816 102.65 100.619 102.604 111.646 102.604C122.673 102.604 131.61 102.65 131.61 102.705Z" fill="#263238"/>
<path d="M108.499 108.851C108.279 108.88 108.058 108.893 107.837 108.89L106.032 108.921C104.514 108.921 102.408 108.953 100.086 108.953C97.7649 108.953 95.6588 108.953 94.1361 108.921L92.3315 108.89C92.1116 108.893 91.8918 108.88 91.6738 108.851C91.8915 108.819 92.1115 108.804 92.3315 108.808L94.1361 108.776C95.6588 108.757 97.761 108.749 100.086 108.749C102.411 108.749 104.514 108.749 106.032 108.776L107.837 108.808C108.058 108.804 108.28 108.818 108.499 108.851Z" fill="#263238"/>
<path d="M131.61 105.429C131.61 105.484 122.669 105.531 111.646 105.531C100.622 105.531 91.6816 105.484 91.6816 105.429C91.6816 105.375 100.619 105.328 111.646 105.328C122.673 105.328 131.61 105.371 131.61 105.429Z" fill="#263238"/>
<path d="M86.0057 116.43H80.2826C79.5432 116.43 78.9438 117.029 78.9438 117.768V123.492C78.9438 124.231 79.5432 124.83 80.2826 124.83H86.0057C86.7451 124.83 87.3445 124.231 87.3445 123.492V117.768C87.3445 117.029 86.7451 116.43 86.0057 116.43Z" fill="#46B4CA"/>
<path d="M82.6154 121.84C82.5886 121.839 82.5622 121.833 82.5379 121.821C82.5136 121.81 82.492 121.793 82.4745 121.773L81.3002 120.399C81.2664 120.36 81.2497 120.308 81.2538 120.257C81.2578 120.205 81.2822 120.157 81.3217 120.123C81.3611 120.089 81.4124 120.073 81.4641 120.077C81.5159 120.081 81.5639 120.105 81.5977 120.145L82.635 121.354L85.3752 118.567C85.3926 118.546 85.4141 118.53 85.4383 118.518C85.4625 118.506 85.4889 118.499 85.5158 118.498C85.5428 118.497 85.5697 118.501 85.5948 118.511C85.62 118.52 85.6429 118.535 85.6621 118.554C85.6813 118.573 85.6964 118.596 85.7065 118.621C85.7165 118.646 85.7212 118.672 85.7204 118.699C85.7195 118.726 85.7131 118.753 85.7015 118.777C85.69 118.802 85.6735 118.823 85.6531 118.841L82.7799 121.781C82.7587 121.802 82.7329 121.819 82.7044 121.829C82.6759 121.839 82.6455 121.843 82.6154 121.84Z" fill="white"/>
<path d="M131.61 117.451C131.61 117.506 122.669 117.553 111.646 117.553C100.622 117.553 91.6816 117.506 91.6816 117.451C91.6816 117.396 100.619 117.349 111.646 117.349C122.673 117.349 131.61 117.392 131.61 117.451Z" fill="#263238"/>
<path d="M108.499 123.593C108.28 123.625 108.058 123.639 107.837 123.633L106.032 123.668C104.514 123.668 102.408 123.695 100.086 123.695C97.7649 123.695 95.6588 123.695 94.1361 123.668L92.3315 123.633C92.1115 123.638 91.8915 123.625 91.6738 123.593C91.8918 123.564 92.1116 123.551 92.3315 123.554L94.1361 123.523C95.6588 123.523 97.761 123.492 100.086 123.492C102.411 123.492 104.514 123.492 106.032 123.523L107.837 123.554C108.058 123.551 108.279 123.564 108.499 123.593Z" fill="#263238"/>
<path d="M131.61 120.172C131.61 120.231 122.669 120.274 111.646 120.274C100.622 120.274 91.6816 120.231 91.6816 120.172C91.6816 120.113 100.619 120.07 111.646 120.07C122.673 120.07 131.61 120.117 131.61 120.172Z" fill="#263238"/>
<path d="M86.0057 131.172H80.2826C79.5432 131.172 78.9438 131.771 78.9438 132.51V138.233C78.9438 138.973 79.5432 139.572 80.2826 139.572H86.0057C86.7451 139.572 87.3445 138.973 87.3445 138.233V132.51C87.3445 131.771 86.7451 131.172 86.0057 131.172Z" fill="#46B4CA"/>
<path d="M82.6155 136.585C82.5884 136.584 82.5619 136.577 82.5376 136.565C82.5134 136.553 82.4919 136.536 82.4746 136.515L81.3002 135.145C81.2671 135.105 81.251 135.053 81.2553 135.001C81.2597 134.949 81.2843 134.901 81.3237 134.867C81.3431 134.85 81.3656 134.837 81.39 134.829C81.4144 134.821 81.4401 134.819 81.4656 134.821C81.4912 134.823 81.516 134.83 81.5387 134.842C81.5614 134.854 81.5815 134.871 81.5977 134.89L82.6351 136.1L85.3752 133.309C85.3934 133.291 85.4151 133.276 85.4389 133.266C85.4628 133.256 85.4884 133.251 85.5142 133.251C85.54 133.251 85.5656 133.256 85.5895 133.266C85.6133 133.276 85.635 133.291 85.6532 133.309C85.6714 133.327 85.6859 133.348 85.6958 133.372C85.7056 133.395 85.7107 133.42 85.7107 133.446C85.7107 133.471 85.7056 133.497 85.6958 133.52C85.6859 133.544 85.6714 133.565 85.6532 133.583L82.7799 136.527C82.7581 136.547 82.7322 136.563 82.7039 136.573C82.6756 136.584 82.6455 136.588 82.6155 136.585Z" fill="white"/>
<path d="M131.61 132.197C131.61 132.252 122.669 132.299 111.646 132.299C100.622 132.299 91.6816 132.252 91.6816 132.197C91.6816 132.143 100.619 132.092 111.646 132.092C122.673 132.092 131.61 132.131 131.61 132.197Z" fill="#263238"/>
<path d="M108.499 138.339C108.28 138.371 108.058 138.384 107.837 138.378L106.032 138.41C104.514 138.41 102.408 138.441 100.086 138.441C97.7649 138.441 95.6588 138.441 94.1361 138.41L92.3315 138.378C92.1115 138.384 91.8915 138.371 91.6738 138.339C91.8915 138.307 92.1115 138.294 92.3315 138.3L94.1361 138.269C95.6588 138.249 97.761 138.237 100.086 138.237C102.411 138.237 104.514 138.237 106.032 138.269L107.837 138.3C108.058 138.294 108.28 138.307 108.499 138.339Z" fill="#263238"/>
<path d="M131.61 134.918C131.61 134.973 122.669 135.019 111.646 135.019C100.622 135.019 91.6816 134.973 91.6816 134.918C91.6816 134.863 100.619 134.816 111.646 134.816C122.673 134.816 131.61 134.871 131.61 134.918Z" fill="#263238"/>
<path d="M80.854 53.8081V58.9871C80.8535 59.7019 80.9939 60.4099 81.2671 61.0705C81.5403 61.7311 81.941 62.3314 82.4463 62.8371C82.9516 63.3428 83.5516 63.7439 84.2121 64.0176C84.8725 64.2913 85.5803 64.4322 86.2952 64.4322H124.305C125.75 64.4322 127.135 63.8585 128.156 62.8373C129.177 61.8162 129.751 60.4312 129.751 58.9871V53.8394L80.854 53.8081Z" fill="#0A2D33"/>
<path d="M105.265 55.339C104.258 55.339 103.275 55.0405 102.438 54.4813C101.601 53.9221 100.949 53.1274 100.563 52.1975C100.178 51.2676 100.077 50.2444 100.274 49.2572C100.47 48.2701 100.955 47.3633 101.667 46.6516C102.378 45.9399 103.285 45.4553 104.272 45.2589C105.259 45.0626 106.282 45.1633 107.212 45.5485C108.142 45.9337 108.937 46.5859 109.496 47.4228C110.055 48.2597 110.354 49.2436 110.354 50.25C110.348 51.5978 109.81 52.8886 108.857 53.8416C107.903 54.7946 106.613 55.3328 105.265 55.339ZM105.265 47.0871C104.646 47.0871 104.04 47.2708 103.525 47.6149C103.01 47.959 102.609 48.4481 102.372 49.0203C102.135 49.5925 102.073 50.2222 102.193 50.8297C102.314 51.4372 102.613 51.9952 103.051 52.4331C103.489 52.8711 104.047 53.1694 104.654 53.2902C105.261 53.411 105.891 53.349 106.463 53.112C107.036 52.875 107.525 52.4736 107.869 51.9586C108.213 51.4436 108.397 50.8381 108.397 50.2187C108.391 49.3898 108.06 48.5962 107.474 48.01C106.887 47.4238 106.094 47.0922 105.265 47.0871Z" fill="#263238"/>
<defs>
<filter id="filter0_d" x="0" y="0" width="212" height="212" filterUnits="userSpaceOnUse" color-interpolation-filters="sRGB">
<feFlood flood-opacity="0" result="BackgroundImageFix"/>
<feColorMatrix in="SourceAlpha" type="matrix" values="0 0 0 0 0 0 0 0 0 0 0 0 0 0 0 0 0 0 127 0"/>
<feMorphology radius="2" operator="dilate" in="SourceAlpha" result="effect1_dropShadow"/>
<feOffset dy="1"/>
<feGaussianBlur stdDeviation="2"/>
<feColorMatrix type="matrix" values="0 0 0 0 0.862745 0 0 0 0 0.933333 0 0 0 0 0.945098 0 0 0 1 0"/>
<feBlend mode="normal" in2="BackgroundImageFix" result="effect1_dropShadow"/>
<feBlend mode="normal" in="SourceGraphic" in2="effect1_dropShadow" result="shape"/>
</filter>
</defs>
</svg>
