<svg width="212" height="212" viewBox="0 0 212 212" fill="none" xmlns="http://www.w3.org/2000/svg">
<g filter="url(#filter0_d)">
<g filter="url(#filter1_d)">
<circle cx="106" cy="105" r="100" fill="white"/>
</g>
</g>
<g clip-path="url(#clip0)">
<path d="M90.8037 135.37C90.8037 135.37 65.2502 141.08 66.6425 162.088C117.925 162.213 141.494 162.054 141.494 162.054C141.494 162.054 144.31 141.046 117.329 135.37" fill="#5895A0"/>
<path d="M147.634 162.021C147.572 161.547 141.998 131.724 140.825 127.406C139.653 123.089 137.837 122.498 135.822 122.328C133.807 122.158 133.675 119.897 131.582 120.315C129.489 120.733 128.884 121.442 128.884 121.442C128.884 121.442 126.38 113.611 124.741 114.108C123.102 114.606 126.877 129.815 126.877 129.815C126.877 129.815 124.385 130.033 123.693 132.111C123.161 133.704 128.419 138.906 128.419 138.906L129.363 162.045L147.634 162.021Z" fill="#FB9970"/>
<path d="M117.329 135.37C117.329 135.37 113.809 141.024 104.66 141.047C92.0644 141.079 90.8037 135.37 90.8037 135.37C90.8037 135.37 96.1607 133.599 97.1303 125.961C97.6707 121.705 97.0902 117.24 97.0902 117.24L110.932 116.438C110.932 116.438 109.7 121.939 110.52 126.903C111.77 134.46 117.329 135.37 117.329 135.37Z" fill="#FB9970"/>
<path d="M110.52 126.903C106.265 128.84 100.334 128.629 97.1301 125.96C97.7074 121.71 97.0901 117.239 97.0901 117.239L110.932 116.437C110.932 116.437 109.857 121.915 110.52 126.903Z" fill="#FA6B67"/>
<path d="M84.135 103.505C84.135 103.505 70.0667 100.863 74.1328 90.8775C68.2259 86.885 67.9622 75.1149 77.7558 72.4034C77.4657 65.2843 87.5943 56.575 94.2754 61.6966C101.664 56.5736 114.759 50.9794 119.386 63.1514C126.203 63.7712 130.032 72.1691 127.644 77.8092C133.587 77.8093 135.709 91.8227 124.257 94.3173" fill="#1C072D"/>
<path d="M82.4644 89.4236C84.1965 91.6072 84.9536 94.9996 81.0391 96.9205C82.6925 102.534 86.1088 112.101 91.5094 117.982C102.235 129.661 123.035 119.988 126.074 108.182C128.177 100.006 126.704 91.0499 124.474 83.8275C120.32 84.7268 119.663 81.4361 120.153 79.7556C112.124 81.2483 110.386 72.3162 110.386 72.3162C110.386 72.3162 108.91 78.6059 102.562 81.0367C97.7899 82.8645 92.5888 79.5494 92.5888 79.5494C92.5888 79.5494 93.8835 87.9509 82.4644 89.4236Z" fill="#FB9970"/>
<path d="M123.681 87.8662C123.681 87.8662 126.307 84.4703 130.015 85.1464C133.723 85.822 133.824 101.568 124.001 97.535" fill="#FB9970"/>
<path d="M83.7533 98.4688C83.7533 98.4688 79.7888 96.8238 76.9051 99.2496C74.0215 101.675 81.7437 115.398 88.272 107.023" fill="#FB9970"/>
<path d="M104.419 103.61C104.064 103.56 103.732 103.408 103.429 103.153C102.992 102.787 103.122 102.099 103.285 101.225C103.41 100.563 103.55 99.8125 103.466 99.1064C103.059 95.6932 100.886 93.8112 100.865 93.7928C100.731 93.68 100.715 93.4794 100.828 93.3455C100.941 93.2122 101.141 93.1956 101.275 93.3074C101.372 93.3895 103.659 95.3591 104.097 99.0308C104.192 99.8335 104.036 100.67 103.91 101.342C103.81 101.876 103.686 102.539 103.837 102.666C104.133 102.914 104.447 103.019 104.802 102.985C105.751 102.897 106.616 101.859 106.624 101.849C106.736 101.714 106.937 101.694 107.071 101.805C107.207 101.916 107.227 102.116 107.116 102.252C107.074 102.303 106.077 103.504 104.863 103.618C104.712 103.633 104.563 103.629 104.419 103.61Z" fill="#1C072D"/>
<path d="M95.7691 103.663C96.2465 105.46 95.1764 107.305 93.3785 107.782C91.5806 108.26 89.7354 107.19 89.258 105.392C88.7805 103.594 89.8513 101.749 91.6491 101.272C93.447 100.795 95.2916 101.865 95.7691 103.663Z" fill="#F54693"/>
<path d="M121.748 96.7645C122.225 98.5623 121.154 100.408 119.357 100.885C117.559 101.362 115.714 100.292 115.237 98.4938C114.759 96.6959 115.83 94.8514 117.628 94.3739C119.426 93.8965 121.27 94.9666 121.748 96.7645Z" fill="#F54693"/>
<path d="M81.3352 106.488C81.1248 106.459 80.9201 106.39 80.7366 106.278C80.1633 105.932 79.8478 105.225 79.969 104.559C80.0585 104.071 80.3574 103.665 80.5977 103.338C80.702 103.197 80.9038 103.168 81.0422 103.271C81.1837 103.375 81.214 103.574 81.1097 103.715C80.8978 104.003 80.6574 104.329 80.595 104.674C80.5209 105.078 80.7185 105.524 81.0649 105.734C81.412 105.943 81.9008 105.903 82.2 105.643C82.6468 105.254 82.6489 104.507 82.5012 103.937C82.3147 103.218 81.9407 102.632 81.4479 102.289C80.8993 101.908 80.1926 101.848 79.6883 102.138C79.5369 102.225 79.3413 102.174 79.2539 102.021C79.1659 101.869 79.2185 101.675 79.3705 101.588C80.0836 101.175 81.0651 101.249 81.8109 101.768C82.4285 102.197 82.8919 102.911 83.1164 103.778C83.3688 104.754 83.1819 105.63 82.6169 106.122C82.2695 106.424 81.7898 106.551 81.3352 106.488Z" fill="#FA7761"/>
<path d="M128.45 93.9899C128.421 93.9858 128.392 93.9813 128.364 93.9754C127.629 93.8293 127.032 93.1612 126.767 92.1881C126.533 91.3237 126.581 90.4735 126.903 89.7942C127.294 88.9741 128.109 88.4247 128.932 88.4278C129.11 88.4204 129.251 88.5701 129.25 88.7458C129.249 88.9216 129.106 89.0635 128.931 89.063C128.348 89.0612 127.764 89.4648 127.477 90.0669C127.22 90.609 127.186 91.3032 127.381 92.0209C127.535 92.5885 127.908 93.2363 128.488 93.352C128.883 93.4228 129.322 93.223 129.519 92.8685C129.716 92.5151 129.666 92.0294 129.401 91.7135C129.177 91.4482 128.821 91.2898 128.478 91.1369C128.317 91.0658 128.245 90.8781 128.317 90.7173C128.388 90.5564 128.577 90.4837 128.736 90.5559C129.127 90.73 129.569 90.9262 129.888 91.3047C130.323 91.8227 130.4 92.5926 130.074 93.1778C129.757 93.7468 129.085 94.0779 128.45 93.9899Z" fill="#FA7761"/>
<path d="M91.052 93.5159L98.6332 91.3165C98.6332 91.3165 99.0455 88.6104 97.9168 88.0531C96.7882 87.4957 89.9542 89.7994 89.7866 91.1108C89.619 92.4217 91.052 93.5159 91.052 93.5159Z" fill="#1C072D"/>
<path d="M112.984 89.252L105.237 90.767C105.237 90.767 103.632 88.549 104.38 87.5371C105.128 86.5253 112.26 85.4449 113.009 86.5339C113.757 87.6229 112.984 89.252 112.984 89.252Z" fill="#1C072D"/>
<path d="M96.0884 94.7808C97.7516 94.4272 98.9802 98.229 97.1343 98.7197C95.2878 99.2102 94.4258 95.1345 96.0884 94.7808Z" fill="#1C072D"/>
<path d="M109.635 91.1282C111.298 90.7746 112.527 94.5758 110.68 95.0664C108.835 95.5564 107.972 91.4819 109.635 91.1282Z" fill="#1C072D"/>
<path d="M112.215 105.371C112.215 105.371 106.439 102.471 104.167 108.289C106.561 107.542 112.215 105.371 112.215 105.371Z" fill="#FEFEFE"/>
<g opacity="0.611542">
<path d="M139.53 85.2719C139.735 85.7354 140.147 86.0923 140.764 86.3418C141.367 86.5852 141.905 86.6082 142.378 86.4104C142.852 86.2125 143.206 85.8233 143.44 85.2424C143.684 84.64 143.704 84.1093 143.5 83.6505C143.296 83.1921 142.889 82.8395 142.279 82.593C141.647 82.3376 141.102 82.3013 140.643 82.4834C140.185 82.6658 139.831 83.0657 139.581 83.6833C139.341 84.2786 139.324 84.8084 139.53 85.2719ZM144.379 81.2356L144.647 80.5739C144.825 80.1327 145.062 79.8142 145.36 79.618C145.657 79.4218 146.264 79.2053 147.181 78.9684C148.507 78.6491 149.472 78.2698 150.077 77.8302C150.683 77.3906 151.148 76.7669 151.475 75.9582C151.965 74.7454 151.911 73.5946 151.312 72.5059C150.712 71.4173 149.656 70.5674 148.141 69.9556C146.304 69.2132 144.38 68.9701 142.369 69.2266L142.596 72.1268C144.298 71.9768 145.701 72.1245 146.803 72.57C147.435 72.8253 147.877 73.1494 148.129 73.5416C148.381 73.9342 148.41 74.3694 148.217 74.8472C148.045 75.2736 147.766 75.6096 147.38 75.8554C146.994 76.1015 146.304 76.3442 145.31 76.5838C144.271 76.8483 143.495 77.1802 142.983 77.5804C142.471 77.9806 142.072 78.5337 141.787 79.2393L141.458 80.0551L144.379 81.2356Z" fill="#414142"/>
</g>
<path d="M66.1689 90.5175C66.7673 90.7844 67.4711 90.7714 68.2797 90.4771C69.0685 90.19 69.605 89.7467 69.8883 89.1477C70.1715 88.5487 70.175 87.869 69.8982 87.1084C69.6111 86.3195 69.1714 85.7929 68.5792 85.5285C67.9872 85.2645 67.2918 85.2779 66.4931 85.5686C65.6653 85.8699 65.1103 86.3063 64.8276 86.8775C64.545 87.4491 64.551 88.1389 64.8453 88.9475C65.129 89.7269 65.5704 90.2505 66.1689 90.5175ZM62.9674 68.0663L57.9724 69.8843L63.8423 83.7213L67.365 82.4392L62.9674 68.0663Z" fill="#414142"/>
</g>
<defs>
<filter id="filter0_d" x="2" y="2" width="208" height="208" filterUnits="userSpaceOnUse" color-interpolation-filters="sRGB">
<feFlood flood-opacity="0" result="BackgroundImageFix"/>
<feColorMatrix in="SourceAlpha" type="matrix" values="0 0 0 0 0 0 0 0 0 0 0 0 0 0 0 0 0 0 127 0"/>
<feOffset dy="1"/>
<feGaussianBlur stdDeviation="2"/>
<feColorMatrix type="matrix" values="0 0 0 0 0.862745 0 0 0 0 0.933333 0 0 0 0 0.945098 0 0 0 1 0"/>
<feBlend mode="normal" in2="BackgroundImageFix" result="effect1_dropShadow"/>
<feBlend mode="normal" in="SourceGraphic" in2="effect1_dropShadow" result="shape"/>
</filter>
<filter id="filter1_d" x="0" y="0" width="212" height="212" filterUnits="userSpaceOnUse" color-interpolation-filters="sRGB">
<feFlood flood-opacity="0" result="BackgroundImageFix"/>
<feColorMatrix in="SourceAlpha" type="matrix" values="0 0 0 0 0 0 0 0 0 0 0 0 0 0 0 0 0 0 127 0"/>
<feMorphology radius="2" operator="dilate" in="SourceAlpha" result="effect1_dropShadow"/>
<feOffset dy="1"/>
<feGaussianBlur stdDeviation="2"/>
<feColorMatrix type="matrix" values="0 0 0 0 0.862745 0 0 0 0 0.933333 0 0 0 0 0.945098 0 0 0 1 0"/>
<feBlend mode="normal" in2="BackgroundImageFix" result="effect1_dropShadow"/>
<feBlend mode="normal" in="SourceGraphic" in2="effect1_dropShadow" result="shape"/>
</filter>
<clipPath id="clip0">
<rect width="114" height="114" fill="white" transform="translate(49 48)"/>
</clipPath>
</defs>
</svg>
