<svg width="105" height="39" viewBox="0 0 105 39" fill="none" xmlns="http://www.w3.org/2000/svg">
<path d="M30.8714 22.6597C30.7586 26.2335 29.5091 29.6782 27.3044 32.4932C25.0998 35.3081 22.0548 37.3467 18.6122 38.3125C15.1695 39.2783 11.5086 39.1211 8.16137 37.8637C4.81418 36.6063 1.95523 34.3142 0 31.3206L0.00487134 31.3153L0.0261252 31.3047C0.0314386 31.3047 0.0314378 31.2993 0.0367512 31.2993C0.0420647 31.2887 0.0473793 31.2887 0.0526927 31.2834L5.40685 27.7854L28.1416 12.9238V12.9291C28.1996 13.0137 28.2523 13.0982 28.3055 13.1881C28.4326 13.3838 28.549 13.5866 28.665 13.7916C28.7762 13.982 28.882 14.1724 28.9825 14.3672C29.1361 14.6528 29.2792 14.9491 29.4058 15.2457C29.4696 15.3777 29.5279 15.5105 29.5807 15.6442C29.6653 15.8399 29.7392 16.0303 29.8132 16.2314C29.8716 16.3744 29.919 16.5223 29.9668 16.6706C30.0111 16.7818 30.0461 16.892 30.0833 17.0089C30.2258 17.4588 30.3529 17.914 30.4587 18.3793C30.7831 19.7819 30.9218 21.221 30.8714 22.6597Z" fill="url(#paint0_linear)"/>
<g style="mix-blend-mode:multiply" opacity="0.16">
<g style="mix-blend-mode:multiply" opacity="0.16">
<path d="M30.4587 18.3794L0 31.3206L28.1416 12.9247C29.2309 14.5914 30.0155 16.4383 30.4587 18.3794Z" fill="black"/>
</g>
</g>
<path d="M34.4396 7.61919L34.4343 7.62455C34.429 7.62455 34.4236 7.63513 34.4135 7.63513C34.407 7.64488 34.3977 7.65231 34.3869 7.65639L29.0292 11.1588L6.29395 26.0151C6.23595 25.9266 6.18281 25.8407 6.13012 25.7495C3.80718 22.0692 3.01133 17.628 3.91175 13.3701C4.03017 12.8077 4.17677 12.2516 4.351 11.7039C4.35511 11.6953 4.35866 11.6864 4.36162 11.6774C4.36624 11.6519 4.37336 11.627 4.38288 11.603C5.35224 8.62356 7.13538 5.9746 9.53089 3.95524C11.9264 1.93588 14.8389 0.626587 17.9393 0.175248C21.0397 -0.276091 24.2046 0.148507 27.0764 1.40108C29.9482 2.65366 32.4126 4.68428 34.1912 7.26364C34.1986 7.27209 34.2056 7.28099 34.212 7.29021C34.2917 7.39692 34.3665 7.50806 34.4396 7.61919Z" fill="url(#paint1_linear)"/>
<g style="mix-blend-mode:multiply" opacity="0.25">
<g style="mix-blend-mode:multiply" opacity="0.25">
<path d="M28.3054 13.189C26.8079 14.2473 25.0673 15.4472 23.189 16.718C22.2149 17.3742 21.2159 18.0619 20.1842 18.7393C19.1526 19.4168 18.1098 20.1093 17.0679 20.7974C16.015 21.4797 14.962 22.1572 13.9241 22.8289C12.8871 23.4904 11.8608 24.1413 10.8716 24.7705C8.88216 26.0245 7.01936 27.1779 5.40585 28.1463C3.80299 29.1249 2.43921 29.9028 1.49608 30.4634C0.665413 30.9505 0.141599 31.2414 0.0251465 31.3047C0.0314334 31.2949 0.0407667 31.2874 0.0517124 31.2834L28.1406 12.9247C28.1995 13.0093 28.2522 13.0991 28.3054 13.189Z" fill="black"/>
</g>
</g>
<g style="mix-blend-mode:screen" opacity="0.7">
<g style="mix-blend-mode:screen" opacity="0.7">
<path d="M33.9703 8.07788C33.9639 8.08758 33.9546 8.09502 33.9438 8.09913L5.8508 26.4579C5.79279 26.3693 5.7397 26.2834 5.68701 26.1922C7.18447 25.1393 8.93037 23.934 10.8082 22.6632C11.7823 22.007 12.787 21.33 13.8134 20.6419C14.8398 19.9649 15.8874 19.2719 16.9297 18.5838C17.9827 17.9015 19.0356 17.224 20.0735 16.5523C21.1114 15.8806 22.1369 15.2404 23.1261 14.6107C25.1102 13.3568 26.9783 12.2033 28.5914 11.2296C30.1947 10.2511 31.558 9.47841 32.5016 8.91784C33.33 8.43211 33.8539 8.1412 33.9703 8.07788Z" fill="white"/>
</g>
</g>
<g style="mix-blend-mode:screen" opacity="0.25">
<g style="mix-blend-mode:screen" opacity="0.25">
<path d="M28.7657 22.0774C28.7694 23.1053 28.663 24.1305 28.4482 25.1357C28.0566 27.0261 27.2955 28.8206 26.2086 30.4161C25.1217 32.0116 23.7305 33.3768 22.1146 34.4332C20.4988 35.4896 18.6902 36.2165 16.7926 36.5721C14.8952 36.9277 12.9461 36.9052 11.0574 36.5055C7.95279 35.8678 5.14173 34.2328 3.05225 31.8497L3.20589 31.7491L28.7657 22.0774Z" fill="white"/>
</g>
</g>
<g style="mix-blend-mode:screen" opacity="0.25">
<g style="mix-blend-mode:screen" opacity="0.25">
<path d="M30.5012 8.86125L30.1996 9.05696L5.05786 15.7709C5.06849 15.7076 5.07867 15.6381 5.09461 15.5752C5.4875 13.6844 6.24979 11.8898 7.33781 10.2943C8.42577 8.69875 9.81802 7.33368 11.4347 6.27738C13.0514 5.22105 14.8607 4.49427 16.7588 4.13871C18.657 3.78315 20.6067 3.80581 22.4961 4.20537C25.5996 4.8457 28.4099 6.48022 30.5012 8.86125Z" fill="white"/>
</g>
</g>
<g style="mix-blend-mode:multiply" opacity="0.16">
<g style="mix-blend-mode:multiply" opacity="0.16">
<path d="M30.8714 22.6598C30.7586 26.2336 29.5091 29.6783 27.3044 32.4932C25.0998 35.3082 22.0548 37.3467 18.6122 38.3126C15.1695 39.2784 11.5086 39.1212 8.16137 37.8638C4.81418 36.6064 1.95523 34.3143 0 31.3207C0.53515 32.0255 1.11288 32.697 1.72996 33.3314C2.97011 34.5672 4.38553 35.6137 5.93066 36.437C7.46093 37.2533 9.10822 37.8279 10.8141 38.1404L12.0947 38.3202C12.5228 38.3946 12.9568 38.3733 13.3854 38.4048L14.031 38.4313L14.6766 38.3999C15.1048 38.3903 15.5322 38.3566 15.9566 38.299L17.2319 38.1032L18.4805 37.7862C18.9038 37.6977 19.3006 37.5161 19.7079 37.3877C20.1161 37.2526 20.5141 37.0882 20.8986 36.8958C21.6815 36.5401 22.4364 36.1256 23.1568 35.656L24.2146 34.9099C24.548 34.6402 24.8708 34.3546 25.1989 34.0739C25.5231 33.7887 25.8321 33.4867 26.1248 33.1693L26.5799 32.7039L26.982 32.2014C27.5318 31.5301 28.0338 30.8211 28.4844 30.0795L29.0981 28.9261C29.315 28.5453 29.4421 28.1326 29.6219 27.7359C29.7064 27.5349 29.799 27.3374 29.876 27.1328L30.0717 26.4979C30.1935 26.0745 30.3573 25.6459 30.4472 25.2279C30.642 24.3816 30.7837 23.5238 30.8714 22.6598Z" fill="black"/>
</g>
</g>
<g style="mix-blend-mode:screen" opacity="0.7">
<g style="mix-blend-mode:screen" opacity="0.7">
<path d="M34.1892 7.26445C34.145 7.21176 34.0781 7.13162 33.9882 7.02668C33.8239 6.80971 33.5454 6.51349 33.2102 6.12738C32.2505 5.10278 31.1745 4.19365 30.004 3.41844C29.2325 2.90214 28.4204 2.44917 27.5758 2.06396C26.6382 1.6434 25.6664 1.30344 24.6711 1.04777C24.417 0.979134 24.1314 0.926442 23.8613 0.862681C23.6129 0.804676 23.3273 0.783427 23.0643 0.736049C22.7893 0.698855 22.5192 0.661661 22.2442 0.619597C21.9639 0.587716 21.689 0.582398 21.4083 0.561144C21.128 0.550518 20.8477 0.524398 20.567 0.51687L19.7155 0.548308C19.1482 0.56435 18.5826 0.617445 18.0223 0.707268C17.7408 0.736443 17.4615 0.784073 17.1863 0.849845L16.3503 1.02696C15.8052 1.16422 15.2659 1.35506 14.7315 1.51889C14.2183 1.74029 13.6892 1.92094 13.1972 2.16447C12.9537 2.28624 12.7102 2.41287 12.4671 2.53464L12.1018 2.71972L11.7635 2.93138C11.3136 3.22273 10.8531 3.47645 10.4458 3.79924C9.64832 4.37653 8.90307 5.02268 8.21857 5.7302C7.89715 6.04339 7.59495 6.37565 7.31352 6.72514C7.04386 7.06343 6.78483 7.39153 6.5413 7.69927C6.31991 8.03269 6.11268 8.33954 5.91166 8.63576C5.52555 9.22333 5.26607 9.7839 5.00704 10.2298C4.64174 11.0551 4.41459 11.5683 4.36146 11.6795C4.35849 11.6885 4.35494 11.6974 4.35083 11.706C4.35083 11.706 4.36146 11.6688 4.38271 11.6051C5.35207 8.62571 7.13521 5.97675 9.53072 3.95738C11.9262 1.93802 14.8387 0.628722 17.9391 0.177384C21.0395 -0.273955 24.2044 0.150642 27.0763 1.40322C29.9481 2.6558 32.4124 4.68643 34.191 7.26578L34.1892 7.26445Z" fill="white"/>
</g>
</g>
<path d="M45.634 26.216C44.638 26.216 43.672 26.084 42.736 25.82C41.812 25.544 41.068 25.19 40.504 24.758L41.494 22.562C42.034 22.958 42.676 23.276 43.42 23.516C44.164 23.756 44.908 23.876 45.652 23.876C46.48 23.876 47.092 23.756 47.488 23.516C47.884 23.264 48.082 22.934 48.082 22.526C48.082 22.226 47.962 21.98 47.722 21.788C47.494 21.584 47.194 21.422 46.822 21.302C46.462 21.182 45.97 21.05 45.346 20.906C44.386 20.678 43.6 20.45 42.988 20.222C42.376 19.994 41.848 19.628 41.404 19.124C40.972 18.62 40.756 17.948 40.756 17.108C40.756 16.376 40.954 15.716 41.35 15.128C41.746 14.528 42.34 14.054 43.132 13.706C43.936 13.358 44.914 13.184 46.066 13.184C46.87 13.184 47.656 13.28 48.424 13.472C49.192 13.664 49.864 13.94 50.44 14.3L49.54 16.514C48.376 15.854 47.212 15.524 46.048 15.524C45.232 15.524 44.626 15.656 44.23 15.92C43.846 16.184 43.654 16.532 43.654 16.964C43.654 17.396 43.876 17.72 44.32 17.936C44.776 18.14 45.466 18.344 46.39 18.548C47.35 18.776 48.136 19.004 48.748 19.232C49.36 19.46 49.882 19.82 50.314 20.312C50.758 20.804 50.98 21.47 50.98 22.31C50.98 23.03 50.776 23.69 50.368 24.29C49.972 24.878 49.372 25.346 48.568 25.694C47.764 26.042 46.786 26.216 45.634 26.216ZM59.0205 25.532C58.7445 25.736 58.4025 25.892 57.9945 26C57.5985 26.096 57.1785 26.144 56.7345 26.144C55.5825 26.144 54.6885 25.85 54.0525 25.262C53.4285 24.674 53.1165 23.81 53.1165 22.67V18.692H51.6225V16.532H53.1165V14.174H55.9245V16.532H58.3365V18.692H55.9245V22.634C55.9245 23.042 56.0265 23.36 56.2305 23.588C56.4465 23.804 56.7465 23.912 57.1305 23.912C57.5745 23.912 57.9525 23.792 58.2645 23.552L59.0205 25.532ZM64.906 26.144C63.886 26.144 62.968 25.934 62.152 25.514C61.348 25.082 60.718 24.488 60.262 23.732C59.806 22.976 59.578 22.118 59.578 21.158C59.578 20.198 59.806 19.34 60.262 18.584C60.718 17.828 61.348 17.24 62.152 16.82C62.968 16.388 63.886 16.172 64.906 16.172C65.926 16.172 66.838 16.388 67.642 16.82C68.446 17.24 69.076 17.828 69.532 18.584C69.988 19.34 70.216 20.198 70.216 21.158C70.216 22.118 69.988 22.976 69.532 23.732C69.076 24.488 68.446 25.082 67.642 25.514C66.838 25.934 65.926 26.144 64.906 26.144ZM64.906 23.84C65.626 23.84 66.214 23.6 66.67 23.12C67.138 22.628 67.372 21.974 67.372 21.158C67.372 20.342 67.138 19.694 66.67 19.214C66.214 18.722 65.626 18.476 64.906 18.476C64.186 18.476 63.592 18.722 63.124 19.214C62.656 19.694 62.422 20.342 62.422 21.158C62.422 21.974 62.656 22.628 63.124 23.12C63.592 23.6 64.186 23.84 64.906 23.84ZM76.7729 26.144C75.7409 26.144 74.8109 25.934 73.9829 25.514C73.1669 25.082 72.5249 24.488 72.0569 23.732C71.6009 22.976 71.3729 22.118 71.3729 21.158C71.3729 20.198 71.6009 19.34 72.0569 18.584C72.5249 17.828 73.1669 17.24 73.9829 16.82C74.8109 16.388 75.7409 16.172 76.7729 16.172C77.7929 16.172 78.6809 16.388 79.4369 16.82C80.2049 17.24 80.7629 17.846 81.1109 18.638L78.9329 19.808C78.4289 18.92 77.7029 18.476 76.7549 18.476C76.0229 18.476 75.4169 18.716 74.9369 19.196C74.4569 19.676 74.2169 20.33 74.2169 21.158C74.2169 21.986 74.4569 22.64 74.9369 23.12C75.4169 23.6 76.0229 23.84 76.7549 23.84C77.7149 23.84 78.4409 23.396 78.9329 22.508L81.1109 23.696C80.7629 24.464 80.2049 25.064 79.4369 25.496C78.6809 25.928 77.7929 26.144 76.7729 26.144ZM86.8153 22.202L85.4653 23.534V26H82.6573V12.644H85.4653V20.204L89.5693 16.316H92.9173L88.8853 20.42L93.2773 26H89.8753L86.8153 22.202ZM98.2704 16.172C99.7704 16.172 100.922 16.532 101.726 17.252C102.53 17.96 102.932 19.034 102.932 20.474V26H100.304V24.794C99.7764 25.694 98.7924 26.144 97.3524 26.144C96.6084 26.144 95.9604 26.018 95.4084 25.766C94.8684 25.514 94.4544 25.166 94.1664 24.722C93.8784 24.278 93.7344 23.774 93.7344 23.21C93.7344 22.31 94.0704 21.602 94.7424 21.086C95.4264 20.57 96.4764 20.312 97.8924 20.312H100.124C100.124 19.7 99.9384 19.232 99.5664 18.908C99.1944 18.572 98.6364 18.404 97.8924 18.404C97.3764 18.404 96.8664 18.488 96.3624 18.656C95.8704 18.812 95.4504 19.028 95.1024 19.304L94.0944 17.342C94.6224 16.97 95.2524 16.682 95.9844 16.478C96.7284 16.274 97.4904 16.172 98.2704 16.172ZM98.0544 24.254C98.5344 24.254 98.9604 24.146 99.3324 23.93C99.7044 23.702 99.9684 23.372 100.124 22.94V21.95H98.1984C97.0464 21.95 96.4704 22.328 96.4704 23.084C96.4704 23.444 96.6084 23.732 96.8844 23.948C97.1724 24.152 97.5624 24.254 98.0544 24.254Z" fill="white"/>
<defs>
<linearGradient id="paint0_linear" x1="10.16" y1="37.7407" x2="21.6135" y2="11.267" gradientUnits="userSpaceOnUse">
<stop stop-color="#3B7DD4"/>
<stop offset="1" stop-color="#396074"/>
</linearGradient>
<linearGradient id="paint1_linear" x1="22.1764" y1="2.08121" x2="15.7696" y2="26.6911" gradientUnits="userSpaceOnUse">
<stop stop-color="#46B4CA"/>
<stop offset="1" stop-color="#0B4652"/>
</linearGradient>
</defs>
</svg>
