<svg width="35" height="39" viewBox="0 0 35 39" fill="none" xmlns="http://www.w3.org/2000/svg">
<path d="M30.8714 22.6598C30.7586 26.2335 29.5091 29.6783 27.3044 32.4932C25.0998 35.3082 22.0548 37.3467 18.6122 38.3125C15.1695 39.2784 11.5086 39.1212 8.16137 37.8637C4.81418 36.6063 1.95523 34.3142 0 31.3207L0.00487134 31.3153L0.0261252 31.3047C0.0314386 31.3047 0.0314378 31.2994 0.0367512 31.2994C0.0420647 31.2888 0.0473793 31.2888 0.0526927 31.2835L5.40685 27.7855L28.1416 12.9238V12.9291C28.1996 13.0137 28.2523 13.0983 28.3055 13.1882C28.4326 13.3839 28.549 13.5867 28.665 13.7917C28.7762 13.9821 28.882 14.1725 28.9825 14.3673C29.1361 14.6529 29.2792 14.9491 29.4058 15.2458C29.4696 15.3777 29.5279 15.5106 29.5807 15.6443C29.6653 15.84 29.7392 16.0304 29.8132 16.2314C29.8716 16.3745 29.919 16.5223 29.9668 16.6707C30.0111 16.7818 30.0461 16.8921 30.0833 17.009C30.2258 17.4588 30.3529 17.914 30.4587 18.3794C30.7831 19.7819 30.9218 21.221 30.8714 22.6598Z" fill="url(#paint0_linear)"/>
<g style="mix-blend-mode:multiply" opacity="0.16">
<g style="mix-blend-mode:multiply" opacity="0.16">
<path d="M30.4587 18.3792L0 31.3205L28.1416 12.9246C29.2309 14.5912 30.0155 16.4381 30.4587 18.3792Z" fill="black"/>
</g>
</g>
<path d="M34.4396 7.61919L34.4343 7.62455C34.429 7.62455 34.4236 7.63513 34.4135 7.63513C34.407 7.64488 34.3977 7.65231 34.3869 7.65639L29.0292 11.1588L6.29395 26.0151C6.23595 25.9266 6.18281 25.8407 6.13012 25.7495C3.80718 22.0692 3.01133 17.628 3.91175 13.3701C4.03017 12.8077 4.17677 12.2516 4.351 11.7039C4.35511 11.6953 4.35866 11.6864 4.36162 11.6774C4.36624 11.6519 4.37336 11.627 4.38288 11.603C5.35224 8.62356 7.13538 5.9746 9.53089 3.95524C11.9264 1.93588 14.8389 0.626587 17.9393 0.175248C21.0397 -0.276091 24.2046 0.148507 27.0764 1.40108C29.9482 2.65366 32.4126 4.68428 34.1912 7.26364C34.1986 7.27209 34.2056 7.28099 34.212 7.29021C34.2917 7.39692 34.3665 7.50806 34.4396 7.61919Z" fill="url(#paint1_linear)"/>
<g style="mix-blend-mode:multiply" opacity="0.25">
<g style="mix-blend-mode:multiply" opacity="0.25">
<path d="M28.3054 13.1889C26.8079 14.2472 25.0673 15.4471 23.189 16.7179C22.2149 17.3741 21.2159 18.0618 20.1842 18.7392C19.1526 19.4167 18.1098 20.1092 17.0679 20.7973C16.015 21.4796 14.962 22.1571 13.9241 22.8288C12.8871 23.4903 11.8608 24.1412 10.8716 24.7704C8.88216 26.0244 7.01936 27.1778 5.40585 28.1462C3.80299 29.1247 2.43921 29.9027 1.49608 30.4633C0.665413 30.9503 0.141599 31.2412 0.0251465 31.3046C0.0314334 31.2948 0.0407667 31.2873 0.0517124 31.2833L28.1406 12.9246C28.1995 13.0091 28.2522 13.099 28.3054 13.1889Z" fill="black"/>
</g>
</g>
<g style="mix-blend-mode:screen" opacity="0.7">
<g style="mix-blend-mode:screen" opacity="0.7">
<path d="M33.9703 8.07788C33.9639 8.08758 33.9546 8.09502 33.9438 8.09913L5.8508 26.4579C5.79279 26.3693 5.7397 26.2834 5.68701 26.1922C7.18447 25.1393 8.93037 23.934 10.8082 22.6632C11.7823 22.007 12.787 21.33 13.8134 20.6419C14.8398 19.9649 15.8874 19.2719 16.9297 18.5838C17.9827 17.9015 19.0356 17.224 20.0735 16.5523C21.1114 15.8806 22.1369 15.2404 23.1261 14.6107C25.1102 13.3568 26.9783 12.2033 28.5914 11.2296C30.1947 10.2511 31.558 9.47841 32.5016 8.91784C33.33 8.43211 33.8539 8.1412 33.9703 8.07788Z" fill="white"/>
</g>
</g>
<g style="mix-blend-mode:screen" opacity="0.25">
<g style="mix-blend-mode:screen" opacity="0.25">
<path d="M28.7657 22.0774C28.7694 23.1053 28.663 24.1305 28.4482 25.1357C28.0566 27.0261 27.2955 28.8206 26.2086 30.4161C25.1217 32.0116 23.7305 33.3768 22.1146 34.4332C20.4988 35.4896 18.6902 36.2165 16.7926 36.5721C14.8952 36.9277 12.9461 36.9052 11.0574 36.5055C7.95279 35.8678 5.14173 34.2328 3.05225 31.8497L3.20589 31.7491L28.7657 22.0774Z" fill="white"/>
</g>
</g>
<g style="mix-blend-mode:screen" opacity="0.25">
<g style="mix-blend-mode:screen" opacity="0.25">
<path d="M30.5012 8.86131L30.1996 9.05702L5.05786 15.771C5.06849 15.7077 5.07867 15.6381 5.09461 15.5753C5.4875 13.6845 6.24979 11.8899 7.33781 10.2943C8.42577 8.69881 9.81802 7.33374 11.4347 6.27744C13.0514 5.22111 14.8607 4.49433 16.7588 4.13877C18.657 3.78321 20.6067 3.80587 22.4961 4.20543C25.5996 4.84576 28.4099 6.48028 30.5012 8.86131Z" fill="white"/>
</g>
</g>
<g style="mix-blend-mode:multiply" opacity="0.16">
<g style="mix-blend-mode:multiply" opacity="0.16">
<path d="M30.8714 22.6597C30.7586 26.2335 29.5091 29.6782 27.3044 32.4931C25.0998 35.3081 22.0548 37.3466 18.6122 38.3125C15.1695 39.2783 11.5086 39.121 8.16137 37.8637C4.81418 36.6062 1.95523 34.3142 0 31.3205C0.53515 32.0254 1.11288 32.6969 1.72996 33.3312C2.97011 34.5671 4.38553 35.6136 5.93066 36.4369C7.46093 37.2532 9.10822 37.8278 10.8141 38.1403L12.0947 38.3201C12.5228 38.3945 12.9568 38.3732 13.3854 38.4047L14.031 38.4312L14.6766 38.3998C15.1048 38.3901 15.5322 38.3564 15.9566 38.2988L17.2319 38.1031L18.4805 37.7861C18.9038 37.6975 19.3006 37.516 19.7079 37.3876C20.1161 37.2524 20.5141 37.088 20.8986 36.8957C21.6815 36.54 22.4364 36.1255 23.1568 35.6559L24.2146 34.9098C24.548 34.6401 24.8708 34.3545 25.1989 34.0738C25.5231 33.7886 25.8321 33.4866 26.1248 33.1692L26.5799 32.7038L26.982 32.2012C27.5318 31.53 28.0338 30.821 28.4844 30.0794L29.0981 28.926C29.315 28.5452 29.4421 28.1325 29.6219 27.7358C29.7064 27.5347 29.799 27.3372 29.876 27.1327L30.0717 26.4977C30.1935 26.0744 30.3573 25.6458 30.4472 25.2278C30.642 24.3814 30.7837 23.5237 30.8714 22.6597Z" fill="black"/>
</g>
</g>
<g style="mix-blend-mode:screen" opacity="0.7">
<g style="mix-blend-mode:screen" opacity="0.7">
<path d="M34.1892 7.26451C34.145 7.21182 34.0781 7.13168 33.9882 7.02674C33.8239 6.80977 33.5454 6.51355 33.2102 6.12744C32.2505 5.10284 31.1745 4.19371 30.004 3.4185C29.2325 2.90221 28.4204 2.44923 27.5758 2.06402C26.6382 1.64346 25.6664 1.3035 24.6711 1.04783C24.417 0.979195 24.1314 0.926503 23.8613 0.862742C23.6129 0.804737 23.3273 0.783488 23.0643 0.73611C22.7893 0.698916 22.5192 0.661722 22.2442 0.619658C21.9639 0.587777 21.689 0.582459 21.4083 0.561206C21.128 0.550579 20.8477 0.524459 20.567 0.516931L19.7155 0.548369C19.1482 0.564411 18.5826 0.617506 18.0223 0.707329C17.7408 0.736504 17.4615 0.784134 17.1863 0.849906L16.3503 1.02702C15.8052 1.16428 15.2659 1.35512 14.7315 1.51895C14.2183 1.74035 13.6892 1.921 13.1972 2.16453C12.9537 2.2863 12.7102 2.41293 12.4671 2.5347L12.1018 2.71978L11.7635 2.93144C11.3136 3.2228 10.8531 3.47651 10.4458 3.7993C9.64832 4.3766 8.90307 5.02274 8.21857 5.73026C7.89715 6.04345 7.59495 6.37571 7.31352 6.7252C7.04386 7.06349 6.78483 7.39159 6.5413 7.69933C6.31991 8.03275 6.11268 8.3396 5.91166 8.63582C5.52555 9.2234 5.26607 9.78396 5.00704 10.2298C4.64174 11.0552 4.41459 11.5684 4.36146 11.6795C4.35849 11.6886 4.35494 11.6975 4.35083 11.7061C4.35083 11.7061 4.36146 11.6689 4.38271 11.6051C5.35207 8.62577 7.13521 5.97681 9.53072 3.95744C11.9262 1.93808 14.8387 0.628783 17.9391 0.177446C21.0395 -0.273894 24.2044 0.150703 27.0763 1.40328C29.9481 2.65586 32.4124 4.68649 34.191 7.26584L34.1892 7.26451Z" fill="white"/>
</g>
</g>
<defs>
<linearGradient id="paint0_linear" x1="10.16" y1="37.7407" x2="21.6135" y2="11.267" gradientUnits="userSpaceOnUse">
<stop stop-color="#3B7DD4"/>
<stop offset="1" stop-color="#396074"/>
</linearGradient>
<linearGradient id="paint1_linear" x1="22.1764" y1="2.08121" x2="15.7696" y2="26.6911" gradientUnits="userSpaceOnUse">
<stop stop-color="#46B4CA"/>
<stop offset="1" stop-color="#0B4652"/>
</linearGradient>
</defs>
</svg>
